<svg xmlns="http://www.w3.org/2000/svg" viewBox="0 0 523.33 107.67"><defs><style>.cls-1{fill:#009986;}.cls-2{fill:#f76d4d;}</style></defs><g id="Layer_2" data-name="Layer 2"><g id="Layer_1-2" data-name="Layer 1"><path class="cls-1" d="M0,37.94V12.18A10.07,10.07,0,0,1,10.07,2.11h.14A10.07,10.07,0,0,1,20.28,12.18V39.06c0,9.72,5.83,14.86,13.75,14.86,9.17,0,14.45-6.11,14.45-14.86V12.18A10.07,10.07,0,0,1,58.55,2.11h0A10.07,10.07,0,0,1,68.62,12.18V39.06c0,8.75,5.28,14.86,14.58,14.86C91.12,53.92,97,48.78,97,39.06V12.18A10.07,10.07,0,0,1,107,2.11h0a10.07,10.07,0,0,1,10.07,10.07V37.94c0,21.81-9.72,35-31.25,35C68.9,73,59.17,62.67,59.31,49.75H57.92c0,12.92-9.58,23.2-26.53,23.2C9.72,73,0,59.75,0,37.94Z"/><path class="cls-1" d="M162.65.72c21.95,0,36.53,14.44,36.53,36.11l.1,24.57a10.12,10.12,0,0,1-10.12,10.16h0A10.12,10.12,0,0,1,179,61.44V57h-1.25v1.39c0,7.23-7.64,14.59-21.11,14.59-18.34,0-30.56-13.62-30.56-34.73C126.12,14.19,140.7.72,162.65.72Zm-.14,53.34c11,0,16.53-7.09,16.53-17.23,0-10.41-6.39-17.22-16.39-17.22-9.72,0-16.39,6.94-16.39,17.22S152.65,54.06,162.51,54.06Z"/><path class="cls-1" d="M258.91,57.11h-1.25v1.67c0,9.44-9,14.17-19.87,14.17-22.08,0-29.44-12.78-29.44-34.31V12.14a10,10,0,0,1,10-10h.22a10,10,0,0,1,10,10V39.75c0,9.17,5.14,14.17,14.58,14.17,9.86,0,15.7-6.39,15.7-15.56V12.14a10,10,0,0,1,10-10h.22a10,10,0,0,1,10,10v64c0,19.73-13.48,31.53-36.12,31.53-14.09,0-24.78-4.42-29.93-13.73A10,10,0,0,1,222,79.2h0A10.18,10.18,0,0,1,231.07,85c2,4,6.48,5.92,13,5.92,9.73,0,14.87-4.59,14.87-13.2Z"/><path class="cls-1" d="M324.75.72c21.94,0,36.53,14.44,36.53,36.11S346.69,73,324.75,73,288.21,58.5,288.21,36.83,302.8.72,324.75.72Zm0,53.34c9.86,0,16.39-7.09,16.39-17.23s-6.53-17.22-16.39-17.22-16.39,6.94-16.39,17.22S314.88,54.06,324.75,54.06Z"/><path class="cls-1" d="M420.86,57.11h-1.25v1.67c0,9.44-9,14.17-19.86,14.17-22.09,0-29.45-12.78-29.45-34.31V12.14a10,10,0,0,1,10-10h.22a10,10,0,0,1,10,10V39.75c0,9.17,5.14,14.17,14.59,14.17,9.86,0,15.69-6.39,15.69-15.56V12.14a10,10,0,0,1,10-10h.22a10,10,0,0,1,10,10v64c0,19.73-13.47,31.53-36.11,31.53-14.09,0-24.79-4.42-29.94-13.73A10,10,0,0,1,384,79.2h0A10.16,10.16,0,0,1,393,85c2,4,6.49,5.92,13,5.92,9.72,0,14.86-4.59,14.86-13.2Z"/><path class="cls-1" d="M486.7.72c21.95,0,36.53,14.44,36.53,36.11l.1,24.57a10.12,10.12,0,0,1-10.12,10.16h0a10.12,10.12,0,0,1-10.12-10.12V57h-1.25v1.39c0,7.23-7.64,14.59-21.11,14.59-18.34,0-30.56-13.62-30.56-34.73C450.17,14.19,464.75.72,486.7.72Zm-.14,53.34c11,0,16.53-7.09,16.53-17.23,0-10.41-6.39-17.22-16.39-17.22-9.72,0-16.39,6.94-16.39,17.22S476.7,54.06,486.56,54.06Z"/><rect class="cls-2" x="287.75" width="74.88" height="74.88" rx="36"/></g></g></svg>